<svg id="Ebene_1" data-name="Ebene 1" xmlns="http://www.w3.org/2000/svg" viewBox="0 0 425.2 425.2"><defs><style>.cls-1{fill:#17223a;}.cls-2{fill:#468bca;}.cls-3{fill:#1a3761;}.cls-4{fill:#fdc209;}.cls-5{fill:#2a4596;}.cls-6{fill:#6eb1e2;}.cls-7{fill:#ffd608;}.cls-8{fill:#345fa9;}</style></defs><rect class="cls-1" width="425.2" height="425.2" rx="42.15"/><path class="cls-1" d="M30.19,208.88,122.31,379H69.46a39.79,39.79,0,0,1-39.78-39.79V78.59A39.78,39.78,0,0,1,69.46,38.8h52.85Z" transform="translate(-0.29 1.04)"/><path class="cls-1" d="M399.2,78.59V339.17A39.79,39.79,0,0,1,359.41,379H306.56l.9-1.66,91.23-168.42L306.56,38.8h52.85A39.78,39.78,0,0,1,399.2,78.59Z" transform="translate(-0.29 1.04)"/><polygon class="cls-1" points="306.27 39.84 214.15 96.53 122.02 39.84 306.27 39.84"/><polygon class="cls-2" points="168.53 294.13 122.02 380 29.9 209.92 168.53 294.13"/><polygon class="cls-1" points="306.27 380 122.02 380 215.35 322.57 304.49 376.71 306.27 380"/><polygon class="cls-3" points="307.17 378.34 306.27 380 304.49 376.71 307.17 378.34"/><polygon class="cls-4" points="398.4 209.92 307.17 378.34 304.49 376.71 260.21 294.96 398.4 209.92"/><polygon class="cls-4" points="398.4 209.92 260.21 124.88 306.27 39.84 398.4 209.92"/><polygon class="cls-5" points="304.49 376.71 215.35 322.57 260.21 294.96 304.49 376.71"/><polygon class="cls-5" points="306.27 39.84 260.21 124.88 214.15 96.53 306.27 39.84"/><polygon class="cls-5" points="215.35 322.57 122.02 380 168.53 294.13 215.35 322.57"/><polygon class="cls-2" points="168.08 124.88 29.9 209.92 122.02 39.84 168.08 124.88"/><polygon class="cls-6" points="214.15 209.92 168.53 294.13 29.9 209.92 168.08 124.88 214.15 209.92"/><polygon class="cls-5" points="214.15 96.53 168.08 124.88 122.02 39.84 214.15 96.53"/><polygon class="cls-7" points="398.4 209.92 260.21 294.96 214.15 209.92 260.21 124.88 398.4 209.92"/><polygon class="cls-8" points="260.21 124.88 214.15 209.92 168.08 124.88 214.15 96.53 260.21 124.88"/><polygon class="cls-8" points="260.21 294.96 215.35 322.57 168.53 294.13 214.15 209.92 260.21 294.96"/></svg>